<svg width="96" height="96" xmlns="http://www.w3.org/2000/svg" xmlns:xlink="http://www.w3.org/1999/xlink" xml:space="preserve" overflow="hidden"><defs><clipPath id="clip0"><rect x="544" y="488" width="96" height="96"/></clipPath></defs><g clip-path="url(#clip0)" transform="translate(-544 -488)"><path d="M605.9 550.4C613.7 542.9 614.1 530.5 606.7 522.5 614.6 526.6 621.1 532.9 624.9 537.1 620.9 541 614.1 546.8 605.9 550.4ZM566.6 529.8C569.9 527 573.4 524.6 577.2 522.6 569.9 530.6 570.3 542.9 578.1 550.4 569.9 546.8 563 541 559.1 537.1 561.4 534.5 563.9 532.1 566.6 529.8L566.6 529.8ZM592 552C583.2 552 576 544.8 576 536 576 527.2 583.2 520 592 520 600.8 520 608 527.2 608 536 608 544.8 600.8 552 592 552ZM630.9 534.3C625.1 527.5 609.9 512 592 512 574.1 512 558.9 527.5 553.1 534.3 551.6 536.1 551.7 538.6 553.3 540.3 559.2 546.5 574.3 560 592 560 609.7 560 624.8 546.5 630.8 540.3 632.3 538.7 632.4 536.1 630.9 534.3Z" fill="#D0CECE"/><path d="M602 536C602 541.523 597.523 546 592 546 586.477 546 582 541.523 582 536 582 530.477 586.477 526 592 526 597.523 526 602 530.477 602 536Z" fill="#D0CECE"/></g></svg>