<svg width="34" height="34" xmlns="http://www.w3.org/2000/svg" xmlns:xlink="http://www.w3.org/1999/xlink" xml:space="preserve" overflow="hidden"><defs><clipPath id="clip0"><rect x="619" y="346" width="34" height="34"/></clipPath></defs><g clip-path="url(#clip0)" transform="translate(-619 -346)"><path d="M644.96 350.956 645.917 350.956 645.917 348.833 626.094 348.833 626.094 350.958 627.015 350.958C627.404 354.887 629.671 360.622 632.962 362.993 629.67 365.366 627.369 371.099 627.015 375.028L626.094 375.028 626.094 377.153 645.917 377.153 645.917 375.028 644.96 375.028C644.606 371.099 642.304 365.365 639.014 362.993 642.306 360.62 644.606 354.885 644.96 350.956ZM642.825 350.956C642.629 352.537 642.228 354.086 641.631 355.562L630.369 355.562C629.772 354.085 629.364 352.538 629.154 350.958ZM634.203 364.715C634.342 364.615 634.468 364.499 634.578 364.369L635.302 365.295 635.302 371.5 631.777 375.025 629.149 375.025C629.525 371.5 631.611 366.583 634.203 364.715ZM642.825 375.025 640.244 375.025 636.719 371.5 636.719 365.27 637.412 364.385C637.519 364.508 637.639 364.619 637.772 364.714 640.364 366.583 642.45 371.5 642.825 375.025Z" fill="#D0CECE"/></g></svg>