<svg width="30" height="30" xmlns="http://www.w3.org/2000/svg" xmlns:xlink="http://www.w3.org/1999/xlink" xml:space="preserve" overflow="hidden"><defs><clipPath id="clip0"><rect x="837" y="208" width="30" height="30"/></clipPath></defs><g clip-path="url(#clip0)" transform="translate(-837 -208)"><path d="M851.993 211.125C845.438 211.125 840.125 216.439 840.124 222.993 840.124 229.548 845.438 234.862 851.993 234.863 858.548 234.863 863.862 229.549 863.862 222.994 863.862 222.994 863.862 222.993 863.862 222.993 863.864 216.441 858.555 211.128 852.003 211.125 852 211.125 851.997 211.125 851.993 211.125ZM853.222 229.399C853.089 229.708 852.843 229.954 852.534 230.086 852.375 230.154 852.204 230.188 852.031 230.188 851.686 230.188 851.355 230.052 851.111 229.808 850.993 229.69 850.899 229.551 850.833 229.397 850.765 229.238 850.731 229.067 850.732 228.894 850.731 228.549 850.867 228.218 851.111 227.973 851.616 227.467 852.437 227.466 852.943 227.971 852.944 227.972 852.945 227.973 852.946 227.973L852.946 227.973C853.064 228.092 853.159 228.233 853.223 228.388 853.291 228.548 853.326 228.72 853.325 228.894 853.325 229.067 853.29 229.239 853.222 229.398ZM854.325 223.911C853.471 224.426 852.944 225.345 852.931 226.342L851.056 226.342C851.067 224.7 851.926 223.181 853.327 222.324 854.501 221.588 854.856 220.039 854.12 218.865 853.384 217.691 851.835 217.336 850.661 218.072 849.929 218.531 849.484 219.335 849.484 220.199L847.609 220.199C847.608 217.778 849.571 215.814 851.992 215.813 854.414 215.812 856.377 217.774 856.378 220.196 856.379 221.705 855.603 223.108 854.325 223.911Z" fill="#D0CECE"/></g></svg>